<?xml version="1.0" encoding="utf-8"?>
<!-- Generator: Adobe Illustrator 27.0.0, SVG Export Plug-In . SVG Version: 6.00 Build 0)  -->
<svg version="1.1" xmlns="http://www.w3.org/2000/svg" xmlns:xlink="http://www.w3.org/1999/xlink" x="0px" y="0px"
	 viewBox="0 0 1350 1080" style="enable-background:new 0 0 1350 1080;" xml:space="preserve">
<style type="text/css">
	.st0{fill:none;stroke:#1D1D1B;stroke-width:2;stroke-miterlimit:10;}
</style>
<g id="Capa_2">
	<path class="st0" d="M848,557.6l-110-32.4c-22.5-61.4,25.3-80.1,25.3-80.1l107.4,26.7"/>
	<path class="st0" d="M913.3,576.9L848,557.6c-7.3-8.9-11.9-22.9-11.9-37.4c0-26.7,15.5-48.4,34.6-48.4l69.2,17.8
		C939.9,489.6,890.3,514.6,913.3,576.9z"/>
	<path class="st0" d="M913.3,576.9"/>
	<path class="st0" d="M913.3,576.9"/>
	<path class="st0" d="M937.1,561.9c-6.7,9.3-15.5,14.9-23.8,14.9"/>
	<path class="st0" d="M940.6,489.8c3.5,6.9,6,15.3,7.1,24.7"/>
	<path class="st0" d="M984.5,530.3l-38.7-16.7c0,0-24.9,14.6-13,47.6l40.5,3.5"/>
	<path class="st0" d="M973.9,565.1c-2.5-3.7-4.1-8.7-4.1-14.3c0-11.3,6.5-20.5,14.4-20.5c3.7,0,7.5,2.4,10,5.6"/>
	<polyline class="st0" points="1010.1,539.9 1017.3,541.7 1003.6,550 974.2,541.1 986.3,534 996.6,536.5 	"/>
	<polyline class="st0" points="987.9,545.3 978.1,559 971.5,559 	"/>
	<polyline class="st0" points="973.3,564.7 994.5,568.4 993.9,615.2 952.4,602.9 958.7,598.5 994,609.1 	"/>
	<polyline class="st0" points="1010.1,546.1 1009,613.5 1002.6,618.9 1003.9,550.3 	"/>
	<polyline class="st0" points="997.2,495 996.5,543.6 1004.3,545.3 1010.1,542.8 1010.1,498.8 	"/>
	<line class="st0" x1="1004.3" y1="497.3" x2="1004.3" y2="545.3"/>
	<polyline class="st0" points="1002.2,619.5 1043.3,631.8 1051,625.8 1008.7,613.9 	"/>
	<polyline class="st0" points="952.4,602.9 940.6,1014.9 1026.6,1047.4 1043.3,631.8 	"/>
	<polyline class="st0" points="1051,625.8 1036.9,1028.3 1026.6,1047.4 	"/>
	<polygon class="st0" points="978.9,1000.6 987.8,1005 1002.2,628 991.8,625.8 	"/>
	<polygon class="st0" points="1047.4,508 1056.7,30.7 968.9,57.7 953.9,484.7 	"/>
	<polyline class="st0" points="1056.7,30.7 1065.8,50.4 1055,502.1 1047.4,508 	"/>
	<polygon class="st0" points="1007.3,106.3 1016.4,102.4 1006.6,486.1 996.3,481.1 	"/>
</g>
<g id="Capa_3">
	<path class="st0" d="M772.8,428.9l10.7-11.4l48.9-21.8c0,0,39.5,12.8,20.1,49.4l-36.2,13.2"/>
	<path class="st0" d="M790.5,451.9c1.4-24.1-27.2-24.9-27.2-24.9l-34.2,14.2l-3.6,5.7"/>
</g>
<g id="Capa_4">
	<path class="st0" d="M732.5,501.7c-4.6,2.6-9.9,4.1-15.6,4.1c-2.2,0-4.3-0.2-6.4-0.6"/>
	<path class="st0" d="M691.2,458.5c5.6-8.1,15-13.4,25.8-13.4c11.5,0,21.5,6.1,26.9,15.1"/>
	<ellipse class="st0" cx="716.9" cy="449.9" rx="14" ry="4.7"/>
	<path class="st0" d="M618.8,483.9l66-26.9c0,0,45.4,8,23.3,53l-65.6,30.6"/>
	<path class="st0" d="M525.8,610.7l110.9-51.1c0,0,0,0,0.1-0.1c27.8-72.4-33-81.2-34.2-81.4c0,0,0,0,0,0l-110.4,44.1
		c-0.1,0-0.1,0.2,0,0.2c5-0.7,29-2.1,43.3,28.4c14.9,31.7-6.6,56.4-9.7,59.7C525.6,610.7,525.7,610.8,525.8,610.7z"/>
	<path class="st0" d="M477.4,540.7c0,0,3.1-13.8,14.7-18.4"/>
	<path class="st0" d="M504.2,607c10,7.2,22.6,3.3,22.6,3.3"/>
	<path class="st0" d="M377,587l16-6.5l8.9-10.5l73.6-29.4c51.3,16.9,28.2,68.5,28.2,68.5l-70.8,32.6h-14.9l-58.1,27.1"/>
	<line class="st0" x1="327.9" y1="607" x2="361" y2="593.5"/>
	
		<ellipse transform="matrix(0.9159 -0.4015 0.4015 0.9159 -227.9692 190.8592)" class="st0" cx="341.4" cy="639.4" rx="24.4" ry="35.1"/>
	<polyline class="st0" points="373.4,662.5 375.4,692.5 367.4,689.2 366.1,665.9 	"/>
	<polyline class="st0" points="367.9,688.9 348.5,698.8 358.2,703.5 405.9,680.5 397.1,674.7 384.7,680.7 	"/>
	<path class="st0" d="M369.1,688.3"/>
	<polyline class="st0" points="348.5,698.8 357.9,829.6 367.8,839.2 358.2,703.5 	"/>
	<polyline class="st0" points="367.8,839.2 414.7,814 405.9,680.5 	"/>
	<polyline class="st0" points="375.4,693.1 385.1,688.2 383.1,657.9 	"/>
	<polyline class="st0" points="375.3,561 377.5,595.5 368.9,598.6 361,595.8 359.7,568.2 	"/>
	<line class="st0" x1="366.7" y1="564.3" x2="368.9" y2="598.6"/>
	<polygon class="st0" points="396.7,553 344.4,573.5 331.8,421.1 324.3,418.1 374.5,400.5 384.8,403.5 	"/>
	<polyline class="st0" points="344.4,573.5 336.4,569.5 324.3,418.1 	"/>
</g>
<g id="Capa_5">
	<path class="st0" d="M597.8,480l-44.2-14.3C538.9,419,579.3,398,579.3,398l98.5,23.9"/>
	<path class="st0" d="M647.5,472.1c-0.2-2.1-0.2-3.2-0.2-5.4c0-24.7,13.7-44.8,30.6-44.8c11.6,0,22.2,11.6,27.4,25.4"/>
	<path class="st0" d="M565.4,409.1l-26.9-6.9L492,398c0,0-17.2,15.8-5.3,30.2l35.9,19.7l28.8,9.1"/>
	<polyline class="st0" points="490.2,400 473.7,395.5 464.1,400.5 485.7,406.2 	"/>
	<polyline class="st0" points="484.5,425 463.1,418.5 463.1,400.8 	"/>
</g>
</svg>
